<svg xmlns="http://www.w3.org/2000/svg" xmlns:xlink="http://www.w3.org/1999/xlink" width="500" zoomAndPan="magnify" viewBox="0 0 375 374.999991" height="500" preserveAspectRatio="xMidYMid meet" version="1.0"><defs><clipPath id="637e92d03b"><path d="M 93 4.425781 L 348.894531 4.425781 L 348.894531 186 L 93 186 Z M 93 4.425781 " clip-rule="nonzero"/></clipPath><clipPath id="161959fc0a"><path d="M 26.394531 66 L 282 66 L 282 247 L 26.394531 247 Z M 26.394531 66 " clip-rule="nonzero"/></clipPath><clipPath id="32d7ca0f21"><path d="M 93 127 L 348.894531 127 L 348.894531 309 L 93 309 Z M 93 127 " clip-rule="nonzero"/></clipPath><clipPath id="d4361730ab"><path d="M 26.558594 189.753906 L 281.382812 189.753906 L 281.382812 370.425781 L 26.558594 370.425781 Z M 26.558594 189.753906 " clip-rule="nonzero"/></clipPath></defs><rect x="-37.5" width="450" fill="#ffffff" y="-37.499999" height="449.999989" fill-opacity="1"/><rect x="-37.5" width="450" fill="#f6f6f3" y="-37.499999" height="449.999989" fill-opacity="1"/><g clip-path="url(#637e92d03b)"><path fill="#d0dbdd" d="M 257.972656 128.179688 C 249.3125 128.179688 246.390625 126.960938 219.324219 111.109375 C 211.761719 106.71875 202.496094 101.355469 191.03125 94.769531 C 202.496094 88.3125 211.640625 82.945312 219.199219 78.558594 C 246.632812 62.707031 249.554688 61.363281 257.972656 61.363281 C 276.378906 61.363281 291.257812 76.363281 291.378906 94.894531 C 291.257812 113.304688 276.261719 128.179688 257.972656 128.179688 Z M 348.441406 94.894531 C 348.441406 94.894531 348.441406 94.652344 348.441406 94.527344 C 348.316406 44.78125 307.71875 4.425781 257.972656 4.425781 C 232.855469 4.425781 219.933594 11.859375 181.886719 34.054688 C 163.847656 44.539062 139.09375 58.925781 103.371094 78.308594 C 97.398438 81.605469 93.617188 87.820312 93.617188 94.769531 C 93.617188 101.597656 97.398438 107.9375 103.371094 111.230469 C 139.582031 130.863281 164.574219 145.367188 182.746094 155.980469 C 221.515625 178.535156 233.21875 185.242188 258.089844 185.242188 C 307.835938 185.242188 348.441406 144.640625 348.441406 94.894531 " fill-opacity="1" fill-rule="nonzero"/></g><g clip-path="url(#161959fc0a)"><path fill="#c2b19c" d="M 117.023438 123.179688 C 125.683594 123.179688 128.609375 124.398438 155.796875 140.25 C 163.355469 144.640625 172.625 150.003906 184.082031 156.464844 C 172.625 162.929688 163.480469 168.171875 155.921875 172.683594 C 128.488281 188.53125 125.558594 189.871094 117.148438 189.871094 C 98.738281 189.871094 83.863281 174.878906 83.863281 156.34375 C 83.738281 138.054688 98.738281 123.179688 117.023438 123.179688 Z M 193.109375 217.304688 C 211.148438 206.820312 235.902344 192.433594 271.625 172.925781 C 277.597656 169.632812 281.378906 163.414062 281.378906 156.464844 C 281.378906 149.636719 277.597656 143.296875 271.625 140.007812 C 235.417969 120.375 210.539062 105.867188 192.375 95.261719 C 153.601562 72.703125 141.902344 66 117.023438 66 C 67.160156 66 26.558594 106.601562 26.558594 156.34375 L 26.558594 156.589844 C 26.679688 206.332031 67.277344 246.691406 117.023438 246.691406 C 142.144531 246.933594 154.945312 239.5 193.109375 217.304688 " fill-opacity="1" fill-rule="nonzero"/></g><g clip-path="url(#32d7ca0f21)"><path fill="#ba8263" d="M 257.972656 251.6875 C 249.3125 251.6875 246.390625 250.46875 219.324219 234.621094 C 211.761719 230.230469 202.496094 224.867188 191.03125 218.28125 C 202.496094 211.816406 211.640625 206.453125 219.199219 202.0625 C 246.632812 186.214844 249.554688 184.875 257.972656 184.875 C 276.378906 184.875 291.257812 199.871094 291.378906 218.40625 C 291.257812 236.9375 276.261719 251.6875 257.972656 251.6875 Z M 348.441406 218.40625 C 348.441406 218.40625 348.441406 218.160156 348.441406 218.039062 C 348.316406 168.292969 307.71875 127.9375 257.972656 127.9375 C 232.855469 127.9375 219.933594 135.371094 181.886719 157.5625 C 163.847656 168.046875 139.09375 182.4375 103.371094 201.820312 C 97.398438 205.113281 93.617188 211.332031 93.617188 218.28125 C 93.617188 225.109375 97.398438 231.449219 103.371094 234.742188 C 139.582031 254.371094 164.574219 268.878906 182.746094 279.484375 C 221.515625 302.042969 233.21875 308.75 258.089844 308.75 C 307.835938 308.871094 348.441406 268.269531 348.441406 218.40625 " fill-opacity="1" fill-rule="nonzero"/></g><g clip-path="url(#d4361730ab)"><path fill="#d0dbdd" d="M 117.023438 246.933594 C 125.683594 246.933594 128.609375 248.152344 155.796875 264.003906 C 163.355469 268.394531 172.625 273.757812 184.082031 280.21875 C 172.742188 286.683594 163.480469 291.921875 155.921875 296.3125 C 128.488281 312.164062 125.558594 313.507812 117.148438 313.507812 C 98.738281 313.507812 83.863281 298.507812 83.863281 279.976562 C 83.738281 261.808594 98.738281 246.933594 117.023438 246.933594 Z M 193.109375 341.058594 C 211.148438 330.574219 235.902344 316.1875 271.625 296.679688 C 277.597656 293.386719 281.378906 287.167969 281.378906 280.21875 C 281.378906 273.390625 277.597656 267.050781 271.625 263.757812 C 235.417969 244.007812 210.421875 229.621094 192.25 219.015625 C 153.484375 196.457031 141.777344 189.753906 116.90625 189.753906 C 67.160156 189.871094 26.558594 230.472656 26.558594 280.21875 L 26.558594 280.460938 C 26.679688 330.207031 67.277344 370.5625 117.023438 370.5625 C 142.144531 370.6875 154.945312 363.253906 193.109375 341.058594 " fill-opacity="1" fill-rule="nonzero"/></g></svg>