<svg xmlns="http://www.w3.org/2000/svg" xmlns:xlink="http://www.w3.org/1999/xlink" width="500" zoomAndPan="magnify" viewBox="0 0 375 374.999991" height="500" preserveAspectRatio="xMidYMid meet" version="1.0"><defs><g/><clipPath id="3ceb2d040a"><path d="M 77 138.949219 L 145.929688 138.949219 L 145.929688 187 L 77 187 Z M 77 138.949219 " clip-rule="nonzero"/></clipPath><clipPath id="b112ea4b04"><path d="M 59.894531 155 L 128 155 L 128 204 L 59.894531 204 Z M 59.894531 155 " clip-rule="nonzero"/></clipPath><clipPath id="286e926e29"><path d="M 77 171 L 145.929688 171 L 145.929688 220 L 77 220 Z M 77 171 " clip-rule="nonzero"/></clipPath><clipPath id="739f61f4f7"><path d="M 59.933594 188.097656 L 127.511719 188.097656 L 127.511719 236.046875 L 59.933594 236.046875 Z M 59.933594 188.097656 " clip-rule="nonzero"/></clipPath></defs><rect x="-37.5" width="450" fill="#ffffff" y="-37.499999" height="449.999989" fill-opacity="1"/><rect x="-37.5" width="450" fill="#f6f6f3" y="-37.499999" height="449.999989" fill-opacity="1"/><g clip-path="url(#3ceb2d040a)"><path fill="#d0dbdd" d="M 121.304688 171.769531 C 119.007812 171.769531 118.230469 171.445312 111.054688 167.242188 C 109.046875 166.078125 106.59375 164.652344 103.550781 162.90625 C 106.59375 161.195312 109.015625 159.769531 111.019531 158.609375 C 118.296875 154.40625 119.070312 154.046875 121.304688 154.046875 C 126.1875 154.046875 130.132812 158.027344 130.164062 162.941406 C 130.132812 167.824219 126.152344 171.769531 121.304688 171.769531 Z M 145.296875 162.941406 C 145.296875 162.941406 145.296875 162.875 145.296875 162.84375 C 145.261719 149.652344 134.496094 138.949219 121.304688 138.949219 C 114.644531 138.949219 111.214844 140.921875 101.125 146.804688 C 96.34375 149.585938 89.777344 153.402344 80.304688 158.542969 C 78.71875 159.417969 77.71875 161.066406 77.71875 162.90625 C 77.71875 164.71875 78.71875 166.398438 80.304688 167.273438 C 89.90625 172.480469 96.535156 176.324219 101.355469 179.140625 C 111.636719 185.121094 114.738281 186.898438 121.335938 186.898438 C 134.527344 186.898438 145.296875 176.132812 145.296875 162.941406 " fill-opacity="1" fill-rule="nonzero"/></g><g clip-path="url(#b112ea4b04)"><path fill="#c2b19c" d="M 83.925781 170.441406 C 86.222656 170.441406 86.996094 170.765625 94.207031 174.96875 C 96.210938 176.132812 98.671875 177.554688 101.710938 179.269531 C 98.671875 180.984375 96.246094 182.375 94.242188 183.570312 C 86.964844 187.773438 86.1875 188.128906 83.957031 188.128906 C 79.074219 188.128906 75.128906 184.152344 75.128906 179.234375 C 75.097656 174.386719 79.074219 170.441406 83.925781 170.441406 Z M 104.101562 195.402344 C 108.886719 192.621094 115.449219 188.808594 124.925781 183.632812 C 126.507812 182.761719 127.511719 181.113281 127.511719 179.269531 C 127.511719 177.457031 126.507812 175.777344 124.925781 174.902344 C 115.320312 169.699219 108.726562 165.851562 103.90625 163.039062 C 93.625 157.054688 90.523438 155.277344 83.925781 155.277344 C 70.703125 155.277344 59.933594 166.042969 59.933594 179.234375 L 59.933594 179.300781 C 59.964844 192.492188 70.734375 203.195312 83.925781 203.195312 C 90.585938 203.261719 93.980469 201.289062 104.101562 195.402344 " fill-opacity="1" fill-rule="nonzero"/></g><g clip-path="url(#286e926e29)"><path fill="#ba8263" d="M 121.304688 204.519531 C 119.007812 204.519531 118.230469 204.199219 111.054688 199.996094 C 109.046875 198.832031 106.59375 197.410156 103.550781 195.660156 C 106.59375 193.949219 109.015625 192.527344 111.019531 191.359375 C 118.296875 187.15625 119.070312 186.804688 121.304688 186.804688 C 126.1875 186.804688 130.132812 190.78125 130.164062 195.695312 C 130.132812 200.609375 126.152344 204.519531 121.304688 204.519531 Z M 145.296875 195.695312 C 145.296875 195.695312 145.296875 195.628906 145.296875 195.597656 C 145.261719 182.40625 134.496094 171.703125 121.304688 171.703125 C 114.644531 171.703125 111.214844 173.675781 101.125 179.558594 C 96.34375 182.339844 89.777344 186.15625 80.304688 191.296875 C 78.71875 192.167969 77.71875 193.820312 77.71875 195.660156 C 77.71875 197.472656 78.71875 199.152344 80.304688 200.027344 C 89.90625 205.234375 96.535156 209.082031 101.355469 211.894531 C 111.636719 217.875 114.738281 219.652344 121.335938 219.652344 C 134.527344 219.6875 145.296875 208.917969 145.296875 195.695312 " fill-opacity="1" fill-rule="nonzero"/></g><g clip-path="url(#739f61f4f7)"><path fill="#d0dbdd" d="M 83.925781 203.261719 C 86.222656 203.261719 86.996094 203.582031 94.207031 207.789062 C 96.210938 208.953125 98.671875 210.375 101.710938 212.085938 C 98.703125 213.800781 96.246094 215.191406 94.242188 216.355469 C 86.964844 220.558594 86.1875 220.914062 83.957031 220.914062 C 79.074219 220.914062 75.128906 216.9375 75.128906 212.023438 C 75.097656 207.203125 79.074219 203.261719 83.925781 203.261719 Z M 104.101562 228.222656 C 108.886719 225.441406 115.449219 221.625 124.925781 216.453125 C 126.507812 215.582031 127.511719 213.929688 127.511719 212.085938 C 127.511719 210.277344 126.507812 208.59375 124.925781 207.722656 C 115.320312 202.484375 108.695312 198.667969 103.875 195.855469 C 93.59375 189.875 90.488281 188.097656 83.894531 188.097656 C 70.703125 188.128906 59.933594 198.894531 59.933594 212.085938 L 59.933594 212.152344 C 59.964844 225.34375 70.734375 236.046875 83.925781 236.046875 C 90.585938 236.078125 93.980469 234.109375 104.101562 228.222656 " fill-opacity="1" fill-rule="nonzero"/></g><g fill="#30373f" fill-opacity="1"><g transform="translate(169.108515, 163.499989)"><g><path d="M 25.421875 0 L 21.726562 -19.039062 L 16.742188 -19.039062 L 12.792969 -5.683594 L 8.820312 -19.039062 L 3.835938 -19.039062 L 0.140625 0 L 4.757812 0 L 7 -13.128906 L 10.722656 0 L 14.839844 0 L 18.5625 -13.128906 L 20.800781 0 Z M 25.421875 0 "/></g></g></g><g fill="#30373f" fill-opacity="1"><g transform="translate(198.869114, 163.499989)"><g><path d="M 12.039062 -7.28125 L 7.222656 -7.28125 L 9.632812 -14.054688 Z M 19.148438 0 L 11.421875 -19.039062 L 7.867188 -19.039062 L 0.140625 0 L 4.648438 0 L 6.019531 -3.835938 L 13.269531 -3.835938 L 14.644531 0 Z M 19.148438 0 "/></g></g></g><g fill="#30373f" fill-opacity="1"><g transform="translate(222.358568, 163.499989)"><g><path d="M 5.878906 -6.804688 L 5.90625 -6.804688 L 10.441406 0 L 15.761719 0 L 10.304688 -7 C 12.710938 -7.585938 14.644531 -9.714844 14.644531 -12.933594 C 14.644531 -16.546875 11.898438 -19.039062 8.820312 -19.039062 L 1.679688 -19.039062 L 1.679688 0 L 5.878906 0 Z M 8.121094 -15.734375 C 9.351562 -15.734375 10.640625 -14.671875 10.640625 -12.933594 C 10.640625 -11.113281 9.351562 -10.105469 8.121094 -10.105469 L 5.878906 -10.105469 L 5.878906 -15.734375 Z M 8.121094 -15.734375 "/></g></g></g><g fill="#30373f" fill-opacity="1"><g transform="translate(241.984544, 163.499989)"><g><path d="M 5.878906 0 L 5.878906 -19.039062 L 1.679688 -19.039062 L 1.679688 0 Z M 5.878906 0 "/></g></g></g><g fill="#30373f" fill-opacity="1"><g transform="translate(253.743599, 163.499989)"><g><path d="M 12.039062 -7.28125 L 7.222656 -7.28125 L 9.632812 -14.054688 Z M 19.148438 0 L 11.421875 -19.039062 L 7.867188 -19.039062 L 0.140625 0 L 4.648438 0 L 6.019531 -3.835938 L 13.269531 -3.835938 L 14.644531 0 Z M 19.148438 0 "/></g></g></g><g fill="#30373f" fill-opacity="1"><g transform="translate(277.237414, 163.499989)"><g/></g></g><g fill="#30373f" fill-opacity="1"><g transform="translate(169.108515, 196.499987)"><g><path d="M 10.863281 -5.570312 C 10.863281 -4.3125 9.800781 -3.277344 8.539062 -3.277344 L 5.878906 -3.277344 L 5.878906 -7.867188 L 8.539062 -7.867188 C 9.800781 -7.867188 10.863281 -6.804688 10.863281 -5.570312 Z M 9.546875 -13.523438 C 9.546875 -12.320312 8.539062 -11.3125 7.335938 -11.3125 L 5.878906 -11.3125 L 5.878906 -15.734375 L 7.335938 -15.734375 C 8.539062 -15.734375 9.546875 -14.753906 9.546875 -13.523438 Z M 15.148438 -5.460938 C 15.148438 -8.035156 13.410156 -9.742188 11.28125 -10.246094 C 12.710938 -10.890625 13.550781 -12.347656 13.550781 -14.277344 C 13.550781 -16.882812 11.480469 -19.039062 8.230469 -19.039062 L 1.679688 -19.039062 L 1.679688 0 L 9.378906 0 C 13.019531 0 15.148438 -2.183594 15.148438 -5.460938 Z M 15.148438 -5.460938 "/></g></g></g><g fill="#30373f" fill-opacity="1"><g transform="translate(188.734492, 196.499987)"><g><path d="M 12.710938 -3.808594 L 5.878906 -3.808594 L 5.878906 -7.644531 L 12.429688 -7.644531 L 12.429688 -11.449219 L 5.878906 -11.449219 L 5.878906 -15.230469 L 12.710938 -15.230469 L 12.710938 -19.039062 L 1.679688 -19.039062 L 1.679688 0 L 12.710938 0 Z M 12.710938 -3.808594 "/></g></g></g><g fill="#30373f" fill-opacity="1"><g transform="translate(207.324618, 196.499987)"><g><path d="M 15.425781 -6.46875 C 14.644531 -4.789062 12.738281 -3.640625 10.777344 -3.640625 C 7.699219 -3.640625 5.234375 -6.269531 5.234375 -9.519531 C 5.234375 -12.738281 7.699219 -15.398438 10.777344 -15.398438 C 12.710938 -15.398438 14.613281 -14.335938 15.398438 -12.625 L 20.074219 -12.625 C 18.785156 -16.519531 15.117188 -19.316406 10.777344 -19.316406 C 5.375 -19.316406 0.980469 -14.921875 0.980469 -9.519531 C 0.980469 -4.117188 5.375 0.28125 10.777344 0.28125 C 15.117188 0.28125 18.8125 -2.546875 20.101562 -6.46875 Z M 15.425781 -6.46875 "/></g></g></g><g fill="#30373f" fill-opacity="1"><g transform="translate(232.325858, 196.499987)"><g><path d="M 12.710938 -3.808594 L 5.878906 -3.808594 L 5.878906 -7.644531 L 12.429688 -7.644531 L 12.429688 -11.449219 L 5.878906 -11.449219 L 5.878906 -15.230469 L 12.710938 -15.230469 L 12.710938 -19.039062 L 1.679688 -19.039062 L 1.679688 0 L 12.710938 0 Z M 12.710938 -3.808594 "/></g></g></g><g fill="#30373f" fill-opacity="1"><g transform="translate(250.915983, 196.499987)"><g><path d="M 5.878906 -6.804688 L 5.90625 -6.804688 L 10.441406 0 L 15.761719 0 L 10.304688 -7 C 12.710938 -7.585938 14.644531 -9.714844 14.644531 -12.933594 C 14.644531 -16.546875 11.898438 -19.039062 8.820312 -19.039062 L 1.679688 -19.039062 L 1.679688 0 L 5.878906 0 Z M 8.121094 -15.734375 C 9.351562 -15.734375 10.640625 -14.671875 10.640625 -12.933594 C 10.640625 -11.113281 9.351562 -10.105469 8.121094 -10.105469 L 5.878906 -10.105469 L 5.878906 -15.734375 Z M 8.121094 -15.734375 "/></g></g></g><g fill="#30373f" fill-opacity="1"><g transform="translate(270.541958, 196.499987)"><g><path d="M 5.878906 -6.804688 L 5.90625 -6.804688 L 10.441406 0 L 15.761719 0 L 10.304688 -7 C 12.710938 -7.585938 14.644531 -9.714844 14.644531 -12.933594 C 14.644531 -16.546875 11.898438 -19.039062 8.820312 -19.039062 L 1.679688 -19.039062 L 1.679688 0 L 5.878906 0 Z M 8.121094 -15.734375 C 9.351562 -15.734375 10.640625 -14.671875 10.640625 -12.933594 C 10.640625 -11.113281 9.351562 -10.105469 8.121094 -10.105469 L 5.878906 -10.105469 L 5.878906 -15.734375 Z M 8.121094 -15.734375 "/></g></g></g><g fill="#30373f" fill-opacity="1"><g transform="translate(290.167934, 196.499987)"><g><path d="M 12.039062 -7.28125 L 7.222656 -7.28125 L 9.632812 -14.054688 Z M 19.148438 0 L 11.421875 -19.039062 L 7.867188 -19.039062 L 0.140625 0 L 4.648438 0 L 6.019531 -3.835938 L 13.269531 -3.835938 L 14.644531 0 Z M 19.148438 0 "/></g></g></g><g fill="#ba8263" fill-opacity="1"><g transform="translate(169.108515, 216.749986)"><g><path d="M 8.382812 -8.605469 L 8.550781 -9.515625 L 2.898438 -9.515625 L 1.050781 0 L 2.027344 0 L 2.867188 -4.296875 L 7.402344 -4.296875 L 7.585938 -5.21875 L 3.050781 -5.21875 L 3.707031 -8.605469 Z M 8.382812 -8.605469 "/></g></g></g><g fill="#ba8263" fill-opacity="1"><g transform="translate(178.190751, 216.749986)"><g><path d="M 2.9375 -4.703125 L 3.695312 -8.578125 L 5.90625 -8.578125 C 6.480469 -8.578125 6.914062 -8.398438 7.195312 -8.03125 C 7.472656 -7.667969 7.558594 -7.234375 7.445312 -6.675781 C 7.332031 -6.117188 7.054688 -5.640625 6.621094 -5.261719 C 6.199219 -4.882812 5.695312 -4.703125 5.148438 -4.703125 Z M 8.410156 -6.648438 C 8.566406 -7.472656 8.425781 -8.160156 7.933594 -8.703125 C 7.460938 -9.238281 6.800781 -9.515625 5.949219 -9.515625 L 2.898438 -9.515625 L 1.050781 0 L 2.027344 0 L 2.757812 -3.765625 L 3.90625 -3.765625 L 5.960938 0 L 7.277344 0 L 5.082031 -3.777344 C 5.820312 -3.820312 6.507812 -4.074219 7.125 -4.5625 C 7.824219 -5.109375 8.242188 -5.808594 8.410156 -6.648438 Z M 8.410156 -6.648438 "/></g></g></g><g fill="#ba8263" fill-opacity="1"><g transform="translate(187.902641, 216.749986)"><g><path d="M 10.355469 -4.785156 C 10.144531 -3.707031 9.585938 -2.785156 8.675781 -2.015625 C 7.765625 -1.246094 6.757812 -0.867188 5.683594 -0.867188 C 4.605469 -0.867188 3.765625 -1.246094 3.148438 -2.015625 C 2.53125 -2.785156 2.324219 -3.707031 2.53125 -4.785156 C 2.742188 -5.863281 3.316406 -6.773438 4.226562 -7.542969 C 5.136719 -8.3125 6.128906 -8.691406 7.207031 -8.691406 C 8.285156 -8.691406 9.140625 -8.3125 9.753906 -7.542969 C 10.371094 -6.773438 10.566406 -5.863281 10.355469 -4.785156 Z M 11.335938 -4.785156 C 11.460938 -5.457031 11.460938 -6.085938 11.320312 -6.691406 C 11.183594 -7.292969 10.945312 -7.808594 10.582031 -8.242188 C 10.214844 -8.675781 9.769531 -9.027344 9.222656 -9.277344 C 8.675781 -9.53125 8.0625 -9.671875 7.390625 -9.671875 C 6.71875 -9.671875 6.058594 -9.53125 5.417969 -9.277344 C 4.773438 -9.027344 4.199219 -8.675781 3.667969 -8.242188 C 3.136719 -7.808594 2.6875 -7.292969 2.308594 -6.691406 C 1.929688 -6.085938 1.679688 -5.457031 1.554688 -4.785156 C 1.425781 -4.113281 1.441406 -3.484375 1.582031 -2.882812 C 1.722656 -2.28125 1.960938 -1.761719 2.324219 -1.316406 C 2.6875 -0.867188 3.121094 -0.519531 3.667969 -0.265625 C 4.210938 -0.015625 4.8125 0.113281 5.484375 0.113281 C 6.15625 0.113281 6.828125 -0.015625 7.472656 -0.265625 C 8.117188 -0.519531 8.703125 -0.867188 9.238281 -1.316406 C 9.769531 -1.761719 10.214844 -2.28125 10.59375 -2.882812 C 10.972656 -3.484375 11.210938 -4.113281 11.335938 -4.785156 Z M 11.335938 -4.785156 "/></g></g></g><g fill="#ba8263" fill-opacity="1"><g transform="translate(201.042619, 216.749986)"><g><path d="M 3.386719 -7.011719 L 7.261719 0.585938 L 9.222656 -9.515625 L 8.242188 -9.515625 L 6.886719 -2.519531 L 3.023438 -10.117188 L 1.050781 0 L 2.027344 0 Z M 3.386719 -7.011719 "/></g></g></g><g fill="#ba8263" fill-opacity="1"><g transform="translate(211.566056, 216.749986)"><g><path d="M 1.960938 -8.636719 L 4.269531 -8.636719 L 2.589844 -0.0273438 L 3.570312 -0.0273438 L 5.25 -8.636719 L 7.558594 -8.636719 L 7.738281 -9.542969 L 2.140625 -9.542969 Z M 1.960938 -8.636719 "/></g></g></g><g fill="#ba8263" fill-opacity="1"><g transform="translate(219.822759, 216.749986)"><g><path d="M 6.703125 0 L 6.886719 -0.910156 L 2.210938 -0.910156 L 2.867188 -4.296875 L 7.402344 -4.296875 L 7.585938 -5.21875 L 3.050781 -5.21875 L 3.707031 -8.605469 L 8.382812 -8.605469 L 8.550781 -9.515625 L 2.898438 -9.515625 L 1.050781 0 Z M 6.703125 0 "/></g></g></g><g fill="#ba8263" fill-opacity="1"><g transform="translate(229.674576, 216.749986)"><g><path d="M 3.386719 -7.011719 L 7.261719 0.585938 L 9.222656 -9.515625 L 8.242188 -9.515625 L 6.886719 -2.519531 L 3.023438 -10.117188 L 1.050781 0 L 2.027344 0 Z M 3.386719 -7.011719 "/></g></g></g><g fill="#ba8263" fill-opacity="1"><g transform="translate(240.198013, 216.749986)"><g><path d="M 9.363281 -4.757812 C 9.503906 -5.445312 9.488281 -6.074219 9.347656 -6.660156 C 9.207031 -7.25 8.972656 -7.753906 8.605469 -8.171875 C 8.242188 -8.59375 7.78125 -8.914062 7.234375 -9.152344 C 6.691406 -9.390625 6.074219 -9.515625 5.386719 -9.515625 L 2.898438 -9.515625 L 1.050781 0 L 3.539062 0 C 4.226562 0 4.882812 -0.125 5.527344 -0.363281 C 6.171875 -0.601562 6.757812 -0.921875 7.277344 -1.34375 C 7.796875 -1.761719 8.242188 -2.265625 8.605469 -2.855469 C 8.972656 -3.441406 9.222656 -4.074219 9.363281 -4.757812 Z M 8.410156 -4.757812 C 8.199219 -3.667969 7.640625 -2.769531 6.730469 -2.042969 C 5.851562 -1.328125 4.871094 -0.980469 3.765625 -0.980469 L 2.226562 -0.980469 L 3.695312 -8.535156 L 5.234375 -8.535156 C 6.339844 -8.535156 7.179688 -8.1875 7.796875 -7.472656 C 8.425781 -6.746094 8.621094 -5.851562 8.410156 -4.757812 Z M 8.410156 -4.757812 "/></g></g></g><g fill="#ba8263" fill-opacity="1"><g transform="translate(251.365088, 216.749986)"><g/></g></g><g fill="#ba8263" fill-opacity="1"><g transform="translate(257.243117, 216.749986)"><g><path d="M 4.730469 -2.351562 L 6.117188 -9.515625 L 5.136719 -9.515625 L 3.75 -2.351562 C 3.640625 -1.75 3.316406 -1.328125 2.8125 -1.078125 C 2.394531 -0.867188 1.917969 -0.785156 1.386719 -0.855469 C 0.882812 -0.910156 0.546875 -1.050781 0.320312 -1.273438 L 0.113281 -0.195312 C 0.195312 -0.125 0.335938 -0.0429688 0.574219 0.0273438 C 0.8125 0.0976562 1.089844 0.125 1.398438 0.140625 C 2.15625 0.167969 2.800781 0 3.371094 -0.335938 C 4.101562 -0.769531 4.546875 -1.441406 4.730469 -2.351562 Z M 4.730469 -2.351562 "/></g></g></g><g fill="#ba8263" fill-opacity="1"><g transform="translate(264.450411, 216.749986)"><g><path d="M 8.550781 -3.148438 L 9.78125 -9.515625 L 8.804688 -9.515625 L 7.542969 -3.007812 C 7.472656 -2.632812 7.332031 -2.296875 7.136719 -2.027344 C 6.578125 -1.246094 5.722656 -0.855469 4.5625 -0.855469 C 3.820312 -0.855469 3.246094 -1.023438 2.855469 -1.359375 C 2.40625 -1.75 2.265625 -2.296875 2.40625 -3.007812 L 3.667969 -9.515625 L 2.6875 -9.515625 L 1.457031 -3.148438 C 1.257812 -2.113281 1.425781 -1.300781 1.988281 -0.714844 C 2.519531 -0.152344 3.304688 0.125 4.367188 0.125 C 5.417969 0.125 6.324219 -0.152344 7.066406 -0.714844 C 7.851562 -1.300781 8.355469 -2.113281 8.550781 -3.148438 Z M 8.550781 -3.148438 "/></g></g></g><g fill="#ba8263" fill-opacity="1"><g transform="translate(275.323642, 216.749986)"><g><path d="M 3.386719 -7.011719 L 7.261719 0.585938 L 9.222656 -9.515625 L 8.242188 -9.515625 L 6.886719 -2.519531 L 3.023438 -10.117188 L 1.050781 0 L 2.027344 0 Z M 3.386719 -7.011719 "/></g></g></g><g fill="#ba8263" fill-opacity="1"><g transform="translate(285.847079, 216.749986)"><g><path d="M 2.027344 0 L 3.875 -9.515625 L 2.898438 -9.515625 L 1.050781 0 Z M 2.027344 0 "/></g></g></g><g fill="#ba8263" fill-opacity="1"><g transform="translate(291.025495, 216.749986)"><g><path d="M 10.355469 -4.785156 C 10.144531 -3.707031 9.585938 -2.785156 8.675781 -2.015625 C 7.765625 -1.246094 6.757812 -0.867188 5.683594 -0.867188 C 4.605469 -0.867188 3.765625 -1.246094 3.148438 -2.015625 C 2.53125 -2.785156 2.324219 -3.707031 2.53125 -4.785156 C 2.742188 -5.863281 3.316406 -6.773438 4.226562 -7.542969 C 5.136719 -8.3125 6.128906 -8.691406 7.207031 -8.691406 C 8.285156 -8.691406 9.140625 -8.3125 9.753906 -7.542969 C 10.371094 -6.773438 10.566406 -5.863281 10.355469 -4.785156 Z M 11.335938 -4.785156 C 11.460938 -5.457031 11.460938 -6.085938 11.320312 -6.691406 C 11.183594 -7.292969 10.945312 -7.808594 10.582031 -8.242188 C 10.214844 -8.675781 9.769531 -9.027344 9.222656 -9.277344 C 8.675781 -9.53125 8.0625 -9.671875 7.390625 -9.671875 C 6.71875 -9.671875 6.058594 -9.53125 5.417969 -9.277344 C 4.773438 -9.027344 4.199219 -8.675781 3.667969 -8.242188 C 3.136719 -7.808594 2.6875 -7.292969 2.308594 -6.691406 C 1.929688 -6.085938 1.679688 -5.457031 1.554688 -4.785156 C 1.425781 -4.113281 1.441406 -3.484375 1.582031 -2.882812 C 1.722656 -2.28125 1.960938 -1.761719 2.324219 -1.316406 C 2.6875 -0.867188 3.121094 -0.519531 3.667969 -0.265625 C 4.210938 -0.015625 4.8125 0.113281 5.484375 0.113281 C 6.15625 0.113281 6.828125 -0.015625 7.472656 -0.265625 C 8.117188 -0.519531 8.703125 -0.867188 9.238281 -1.316406 C 9.769531 -1.761719 10.214844 -2.28125 10.59375 -2.882812 C 10.972656 -3.484375 11.210938 -4.113281 11.335938 -4.785156 Z M 11.335938 -4.785156 "/></g></g></g><g fill="#ba8263" fill-opacity="1"><g transform="translate(304.165475, 216.749986)"><g><path d="M 2.9375 -4.703125 L 3.695312 -8.578125 L 5.90625 -8.578125 C 6.480469 -8.578125 6.914062 -8.398438 7.195312 -8.03125 C 7.472656 -7.667969 7.558594 -7.234375 7.445312 -6.675781 C 7.332031 -6.117188 7.054688 -5.640625 6.621094 -5.261719 C 6.199219 -4.882812 5.695312 -4.703125 5.148438 -4.703125 Z M 8.410156 -6.648438 C 8.566406 -7.472656 8.425781 -8.160156 7.933594 -8.703125 C 7.460938 -9.238281 6.800781 -9.515625 5.949219 -9.515625 L 2.898438 -9.515625 L 1.050781 0 L 2.027344 0 L 2.757812 -3.765625 L 3.90625 -3.765625 L 5.960938 0 L 7.277344 0 L 5.082031 -3.777344 C 5.820312 -3.820312 6.507812 -4.074219 7.125 -4.5625 C 7.824219 -5.109375 8.242188 -5.808594 8.410156 -6.648438 Z M 8.410156 -6.648438 "/></g></g></g><g fill="#ba8263" fill-opacity="1"><g transform="translate(169.108515, 233.249985)"><g><path d="M 9.363281 -4.757812 C 9.503906 -5.445312 9.488281 -6.074219 9.347656 -6.660156 C 9.207031 -7.25 8.972656 -7.753906 8.605469 -8.171875 C 8.242188 -8.59375 7.78125 -8.914062 7.234375 -9.152344 C 6.691406 -9.390625 6.074219 -9.515625 5.386719 -9.515625 L 2.898438 -9.515625 L 1.050781 0 L 3.539062 0 C 4.226562 0 4.882812 -0.125 5.527344 -0.363281 C 6.171875 -0.601562 6.757812 -0.921875 7.277344 -1.34375 C 7.796875 -1.761719 8.242188 -2.265625 8.605469 -2.855469 C 8.972656 -3.441406 9.222656 -4.074219 9.363281 -4.757812 Z M 8.410156 -4.757812 C 8.199219 -3.667969 7.640625 -2.769531 6.730469 -2.042969 C 5.851562 -1.328125 4.871094 -0.980469 3.765625 -0.980469 L 2.226562 -0.980469 L 3.695312 -8.535156 L 5.234375 -8.535156 C 6.339844 -8.535156 7.179688 -8.1875 7.796875 -7.472656 C 8.425781 -6.746094 8.621094 -5.851562 8.410156 -4.757812 Z M 8.410156 -4.757812 "/></g></g></g><g fill="#ba8263" fill-opacity="1"><g transform="translate(180.27559, 233.249985)"><g><path d="M 6.703125 0 L 6.886719 -0.910156 L 2.210938 -0.910156 L 2.867188 -4.296875 L 7.402344 -4.296875 L 7.585938 -5.21875 L 3.050781 -5.21875 L 3.707031 -8.605469 L 8.382812 -8.605469 L 8.550781 -9.515625 L 2.898438 -9.515625 L 1.050781 0 Z M 6.703125 0 "/></g></g></g><g fill="#ba8263" fill-opacity="1"><g transform="translate(190.127406, 233.249985)"><g><path d="M 4.351562 0.574219 L 10.621094 -9.515625 L 9.558594 -9.515625 L 4.828125 -1.847656 L 3.050781 -9.515625 L 1.988281 -9.515625 Z M 4.351562 0.574219 "/></g></g></g><g fill="#ba8263" fill-opacity="1"><g transform="translate(201.140569, 233.249985)"><g><path d="M 6.703125 0 L 6.886719 -0.910156 L 2.210938 -0.910156 L 2.867188 -4.296875 L 7.402344 -4.296875 L 7.585938 -5.21875 L 3.050781 -5.21875 L 3.707031 -8.605469 L 8.382812 -8.605469 L 8.550781 -9.515625 L 2.898438 -9.515625 L 1.050781 0 Z M 6.703125 0 "/></g></g></g><g fill="#ba8263" fill-opacity="1"><g transform="translate(210.992386, 233.249985)"><g><path d="M 2.226562 -0.980469 L 3.875 -9.515625 L 2.898438 -9.515625 L 1.050781 0 L 5.429688 0 L 5.625 -0.980469 Z M 2.226562 -0.980469 "/></g></g></g><g fill="#ba8263" fill-opacity="1"><g transform="translate(218.801339, 233.249985)"><g><path d="M 10.355469 -4.785156 C 10.144531 -3.707031 9.585938 -2.785156 8.675781 -2.015625 C 7.765625 -1.246094 6.757812 -0.867188 5.683594 -0.867188 C 4.605469 -0.867188 3.765625 -1.246094 3.148438 -2.015625 C 2.53125 -2.785156 2.324219 -3.707031 2.53125 -4.785156 C 2.742188 -5.863281 3.316406 -6.773438 4.226562 -7.542969 C 5.136719 -8.3125 6.128906 -8.691406 7.207031 -8.691406 C 8.285156 -8.691406 9.140625 -8.3125 9.753906 -7.542969 C 10.371094 -6.773438 10.566406 -5.863281 10.355469 -4.785156 Z M 11.335938 -4.785156 C 11.460938 -5.457031 11.460938 -6.085938 11.320312 -6.691406 C 11.183594 -7.292969 10.945312 -7.808594 10.582031 -8.242188 C 10.214844 -8.675781 9.769531 -9.027344 9.222656 -9.277344 C 8.675781 -9.53125 8.0625 -9.671875 7.390625 -9.671875 C 6.71875 -9.671875 6.058594 -9.53125 5.417969 -9.277344 C 4.773438 -9.027344 4.199219 -8.675781 3.667969 -8.242188 C 3.136719 -7.808594 2.6875 -7.292969 2.308594 -6.691406 C 1.929688 -6.085938 1.679688 -5.457031 1.554688 -4.785156 C 1.425781 -4.113281 1.441406 -3.484375 1.582031 -2.882812 C 1.722656 -2.28125 1.960938 -1.761719 2.324219 -1.316406 C 2.6875 -0.867188 3.121094 -0.519531 3.667969 -0.265625 C 4.210938 -0.015625 4.8125 0.113281 5.484375 0.113281 C 6.15625 0.113281 6.828125 -0.015625 7.472656 -0.265625 C 8.117188 -0.519531 8.703125 -0.867188 9.238281 -1.316406 C 9.769531 -1.761719 10.214844 -2.28125 10.59375 -2.882812 C 10.972656 -3.484375 11.210938 -4.113281 11.335938 -4.785156 Z M 11.335938 -4.785156 "/></g></g></g><g fill="#ba8263" fill-opacity="1"><g transform="translate(231.941319, 233.249985)"><g><path d="M 2.953125 -4.714844 L 3.695312 -8.578125 L 5.90625 -8.578125 C 6.480469 -8.578125 6.914062 -8.398438 7.195312 -8.046875 C 7.472656 -7.695312 7.558594 -7.234375 7.445312 -6.675781 C 7.332031 -6.117188 7.054688 -5.652344 6.621094 -5.277344 C 6.1875 -4.914062 5.710938 -4.714844 5.164062 -4.714844 Z M 8.410156 -6.648438 C 8.578125 -7.488281 8.425781 -8.171875 7.933594 -8.71875 C 7.460938 -9.25 6.789062 -9.515625 5.949219 -9.515625 L 2.898438 -9.515625 L 1.050781 0 L 2.027344 0 L 2.757812 -3.765625 L 4.828125 -3.765625 C 5.683594 -3.765625 6.4375 -4.042969 7.125 -4.578125 C 7.824219 -5.121094 8.242188 -5.808594 8.410156 -6.648438 Z M 8.410156 -6.648438 "/></g></g></g><g fill="#ba8263" fill-opacity="1"><g transform="translate(241.443324, 233.249985)"><g><path d="M 6.703125 0 L 6.886719 -0.910156 L 2.210938 -0.910156 L 2.867188 -4.296875 L 7.402344 -4.296875 L 7.585938 -5.21875 L 3.050781 -5.21875 L 3.707031 -8.605469 L 8.382812 -8.605469 L 8.550781 -9.515625 L 2.898438 -9.515625 L 1.050781 0 Z M 6.703125 0 "/></g></g></g><g fill="#ba8263" fill-opacity="1"><g transform="translate(251.295142, 233.249985)"><g><path d="M 2.9375 -4.703125 L 3.695312 -8.578125 L 5.90625 -8.578125 C 6.480469 -8.578125 6.914062 -8.398438 7.195312 -8.03125 C 7.472656 -7.667969 7.558594 -7.234375 7.445312 -6.675781 C 7.332031 -6.117188 7.054688 -5.640625 6.621094 -5.261719 C 6.199219 -4.882812 5.695312 -4.703125 5.148438 -4.703125 Z M 8.410156 -6.648438 C 8.566406 -7.472656 8.425781 -8.160156 7.933594 -8.703125 C 7.460938 -9.238281 6.800781 -9.515625 5.949219 -9.515625 L 2.898438 -9.515625 L 1.050781 0 L 2.027344 0 L 2.757812 -3.765625 L 3.90625 -3.765625 L 5.960938 0 L 7.277344 0 L 5.082031 -3.777344 C 5.820312 -3.820312 6.507812 -4.074219 7.125 -4.5625 C 7.824219 -5.109375 8.242188 -5.808594 8.410156 -6.648438 Z M 8.410156 -6.648438 "/></g></g></g></svg>